<?xml version="1.0" encoding="UTF-8"?>
<!DOCTYPE svg PUBLIC "-//W3C//DTD SVG 1.1//EN" "http://www.w3.org/Graphics/SVG/1.1/DTD/svg11.dtd">
<svg xmlns="http://www.w3.org/2000/svg" version="1.1" width="512px" height="512px" style="shape-rendering:geometricPrecision; text-rendering:geometricPrecision; image-rendering:optimizeQuality; fill-rule:evenodd; clip-rule:evenodd" xmlns:xlink="http://www.w3.org/1999/xlink">
<g><path style="opacity:1" fill="#80ccd3" d="M 283.5,10.5 C 283.5,29.5 283.5,48.5 283.5,67.5C 226.5,67.5 169.5,67.5 112.5,67.5C 112.5,52.1667 112.5,36.8333 112.5,21.5C 113.473,16.3534 116.473,12.8534 121.5,11C 175.499,10.5 229.499,10.3333 283.5,10.5 Z"/></g>
<g><path style="opacity:1" fill="#72b0cf" d="M 283.5,10.5 C 337.669,10.1677 391.669,10.501 445.5,11.5C 391.833,11.5 338.167,11.5 284.5,11.5C 284.5,30.1667 284.5,48.8333 284.5,67.5C 289.695,67.1795 294.695,67.5128 299.5,68.5C 294.167,68.5 288.833,68.5 283.5,68.5C 283.5,68.1667 283.5,67.8333 283.5,67.5C 283.5,48.5 283.5,29.5 283.5,10.5 Z"/></g>
<g><path style="opacity:1" fill="#5b9fc9" d="M 445.5,11.5 C 450.115,12.9479 453.282,15.9479 455,20.5C 455.667,167.5 455.667,314.5 455,461.5C 453.147,466.527 449.647,469.527 444.5,470.5C 429.167,470.5 413.833,470.5 398.5,470.5C 398.833,368.665 398.499,266.999 397.5,165.5C 397.159,162.484 395.993,159.818 394,157.5C 365.5,129 337,100.5 308.5,72C 305.928,69.7132 302.928,68.5465 299.5,68.5C 294.695,67.5128 289.695,67.1795 284.5,67.5C 284.5,48.8333 284.5,30.1667 284.5,11.5C 338.167,11.5 391.833,11.5 445.5,11.5 Z"/></g>
<g><path style="opacity:1" fill="#a9dae0" d="M 112.5,21.5 C 112.5,36.8333 112.5,52.1667 112.5,67.5C 169.5,67.5 226.5,67.5 283.5,67.5C 283.5,67.8333 283.5,68.1667 283.5,68.5C 264.5,68.5 245.5,68.5 226.5,68.5C 188.167,68.5 149.833,68.5 111.5,68.5C 111.17,52.6578 111.504,36.9911 112.5,21.5 Z"/></g>
<g><path style="opacity:0.991" fill="#ddebf0" d="M 111.5,68.5 C 149.833,68.5 188.167,68.5 226.5,68.5C 226.5,116.833 226.5,165.167 226.5,213.5C 225.167,213.5 223.833,213.5 222.5,213.5C 216.407,213.139 210.407,213.639 204.5,215C 201.538,217.287 199.371,220.12 198,223.5C 197.5,269.499 197.333,315.499 197.5,361.5C 172.921,352.914 149.588,355.414 127.5,369C 110.908,383.349 107.741,400.182 118,419.5C 130.724,434.693 147.057,442.36 167,442.5C 189.13,443.362 207.13,435.362 221,418.5C 223.265,414.212 225.098,409.879 226.5,405.5C 226.5,436.833 226.5,468.167 226.5,499.5C 173.166,499.667 119.832,499.5 66.5,499C 61.3691,498.184 57.8691,495.351 56,490.5C 54.34,353.876 54.0067,217.209 55,80.5C 56.0529,74.4465 59.5529,70.6132 65.5,69C 80.8297,68.5001 96.163,68.3334 111.5,68.5 Z"/></g>
<g><path style="opacity:1" fill="#c5e1e6" d="M 226.5,68.5 C 245.5,68.5 264.5,68.5 283.5,68.5C 283.333,102.502 283.5,136.502 284,170.5C 285.025,176.528 288.525,180.361 294.5,182C 328.832,182.5 363.165,182.667 397.5,182.5C 397.167,279.001 397.501,375.335 398.5,471.5C 398.877,478.257 398.377,484.924 397,491.5C 395.01,495.49 391.843,497.99 387.5,499C 333.834,499.5 280.168,499.667 226.5,499.5C 226.5,468.167 226.5,436.833 226.5,405.5C 226.5,351.5 226.5,297.5 226.5,243.5C 263.337,253.813 282.504,278.146 284,316.5C 288.183,327.724 295.683,330.557 306.5,325C 310.969,321.395 312.969,316.728 312.5,311C 308.907,265.437 285.907,234.437 243.5,218C 237.97,216.127 232.303,214.961 226.5,214.5C 224.901,214.768 223.568,214.434 222.5,213.5C 223.833,213.5 225.167,213.5 226.5,213.5C 226.5,165.167 226.5,116.833 226.5,68.5 Z"/></g>
<g><path style="opacity:1" fill="#a7d2d7" d="M 283.5,68.5 C 288.833,68.5 294.167,68.5 299.5,68.5C 302.928,68.5465 305.928,69.7132 308.5,72C 337,100.5 365.5,129 394,157.5C 395.993,159.818 397.159,162.484 397.5,165.5C 397.5,171.167 397.5,176.833 397.5,182.5C 363.165,182.667 328.832,182.5 294.5,182C 288.525,180.361 285.025,176.528 284,170.5C 283.5,136.502 283.333,102.502 283.5,68.5 Z"/></g>
<g><path style="opacity:1" fill="#a9d0de" d="M 397.5,165.5 C 398.499,266.999 398.833,368.665 398.5,470.5C 413.833,470.5 429.167,470.5 444.5,470.5C 429.342,471.496 414.009,471.83 398.5,471.5C 397.501,375.335 397.167,279.001 397.5,182.5C 397.5,176.833 397.5,171.167 397.5,165.5 Z"/></g>
<g><path style="opacity:1" fill="#80ccd3" d="M 222.5,213.5 C 223.568,214.434 224.901,214.768 226.5,214.5C 226.5,224.167 226.5,233.833 226.5,243.5C 226.5,297.5 226.5,351.5 226.5,405.5C 225.098,409.879 223.265,414.212 221,418.5C 207.13,435.362 189.13,443.362 167,442.5C 147.057,442.36 130.724,434.693 118,419.5C 107.741,400.182 110.908,383.349 127.5,369C 149.588,355.414 172.921,352.914 197.5,361.5C 197.333,315.499 197.5,269.499 198,223.5C 199.371,220.12 201.538,217.287 204.5,215C 210.407,213.639 216.407,213.139 222.5,213.5 Z"/></g>
<g><path style="opacity:1" fill="#5c9fc9" d="M 226.5,214.5 C 232.303,214.961 237.97,216.127 243.5,218C 285.907,234.437 308.907,265.437 312.5,311C 312.969,316.728 310.969,321.395 306.5,325C 295.683,330.557 288.183,327.724 284,316.5C 282.504,278.146 263.337,253.813 226.5,243.5C 226.5,233.833 226.5,224.167 226.5,214.5 Z"/></g>
</svg>
